<svg width="73" height="40" viewBox="0 0 73 40" fill="none" xmlns="http://www.w3.org/2000/svg">
<path fill-rule="evenodd" clip-rule="evenodd" d="M24.0303 2.51236C24.2043 0.660339 25.43 0.0004631 26.5189 0.0004631L26.5187 0C27.2142 0 27.8939 0.242805 28.4671 0.480081C30.8091 1.4499 33.1343 3.9988 34.1048 6.58475C34.1845 6.56682 34.2646 6.54981 34.3448 6.5337C34.397 6.1187 34.6283 5.73265 34.9992 5.49582C35.2314 5.34777 35.4997 5.26935 35.7749 5.26935C36.0704 5.26935 36.3591 5.36177 36.5994 5.52872C36.7643 5.46478 36.9409 5.43099 37.1211 5.43099C37.2283 5.43099 37.3352 5.44317 37.4393 5.46663C37.9192 5.57517 38.3974 5.80001 38.8683 6.13776C39.8928 3.77671 42.1617 1.37471 44.3216 0.480305C45.1098 0.154044 45.7043 0.0085042 46.249 0.0085042C46.9779 0.0085042 48.6869 0.30625 48.8175 3.06348C48.9508 5.87865 46.6353 9.46706 45.1429 11.0822C46.1699 12.6347 46.7636 14.3407 46.8261 15.9421C46.8319 16.0886 46.8234 16.2824 46.8061 16.5834C47.3674 17 47.658 17.5812 47.6338 18.257C47.6143 18.8014 47.3366 19.2751 46.897 19.5528C46.7572 20.0409 46.4953 20.4325 46.3681 20.6226C44.3041 23.7064 38.1008 23.9459 36.2488 23.9459C34.1004 23.9459 32.0072 23.6772 30.3545 23.189C28.2206 22.5588 26.8123 21.5886 26.1688 20.3053C26.0345 20.0373 25.9398 19.7873 25.883 19.5507C25.7496 19.4615 25.631 19.3514 25.531 19.2233C25.4905 19.1716 25.4528 19.116 25.4192 19.0578C25.158 18.6065 25.0992 18.0917 25.253 17.6079C25.3806 17.2074 25.6436 16.8609 26.0368 16.5742C26.0131 16.1189 26.0025 15.8124 26.0221 15.5979C26.1734 13.9427 26.7089 12.3712 27.5782 11.0183C27.1724 10.5376 26.4796 9.65536 25.8163 8.56253C24.4632 6.33367 23.8624 4.29816 24.0303 2.51236Z" fill="#20185B"></path>
<path d="M46.1924 18.2055C46.2133 17.6229 45.3599 17.5054 45.3311 17.4518C45.2966 17.3879 45.3948 16.2509 45.3849 15.9982C45.2419 12.3429 41.6931 8.48163 39.1131 8.32689C39.0251 8.3216 38.198 7.11681 37.1213 6.87332C37.2464 7.23844 37.2006 7.61597 37.0137 8.00385L35.7756 6.71191C35.7756 6.71191 36.589 8.7957 35.991 9.56502L35.7218 7.78864C31.3158 8.19859 27.8702 11.2251 27.4581 15.7292C27.4312 16.0228 27.5379 17.3187 27.5119 17.398C27.4887 17.4688 26.3499 17.7866 26.6674 18.3356C26.6881 18.3621 26.7228 18.3726 26.7674 18.3726C26.9364 18.3726 27.2473 18.2225 27.4765 18.2225C27.5545 18.2225 27.623 18.2398 27.6733 18.2864C27.2413 18.8371 27.1119 18.9688 27.4579 19.6591C28.4121 21.5619 32.3132 22.5039 36.2485 22.5039C40.0956 22.5039 43.9757 21.6037 45.1695 19.8205C45.3619 19.5331 45.6744 19.0337 45.4925 18.6899C45.4493 18.6081 44.9777 18.3669 45.1426 18.1246C45.2847 18.1747 45.713 18.3704 45.9765 18.3704C46.1005 18.3704 46.1881 18.3274 46.1924 18.2055Z" fill="#FFC0C0"></path>
<path d="M41.9663 18.2864C44.0974 18.1043 44.5064 20.318 42.5045 20.4399C40.5212 20.5606 40.0131 18.4533 41.9663 18.2864Z" fill="#F6A7A8"></path>
<path d="M30.4458 18.2864C32.3771 18.1786 32.67 20.1338 30.9302 20.3861C28.4953 20.7388 28.3999 18.4007 30.4458 18.2864Z" fill="#F6A7A8"></path>
<path d="M37.7134 8.6499C37.8439 8.69589 37.4556 9.36496 37.3634 9.43049L38.1978 9.13435C38.1654 9.60109 36.3878 10.1274 36.2867 9.91493C36.8656 9.63328 37.3085 9.1424 37.7134 8.6499Z" fill="#20185B"></path>
<path d="M41.2666 14.4101C43.4678 14.0496 44.0769 17.9024 41.6434 18.071C39.2237 18.2386 39.5907 14.6847 41.2666 14.4101Z" fill="#20185B"></path>
<path d="M41.5356 15.11C42.3803 14.9235 42.4532 16.2626 41.8586 16.4019C40.9951 16.6045 40.9357 15.2424 41.5356 15.11Z" fill="white"></path>
<path d="M30.984 14.4102C33.4042 14.0354 33.8235 18.56 30.984 18.0172C29.0306 17.6438 29.4787 14.6433 30.984 14.4102Z" fill="#20185B"></path>
<path d="M30.9302 15.11C31.9173 14.8679 31.8701 16.6763 30.9302 16.402C30.4835 16.2716 30.4478 15.2282 30.9302 15.11Z" fill="white"></path>
<path d="M36.206 17.3173C36.7429 17.246 37.6143 17.4964 37.0404 18.1517C36.8134 18.411 36.464 18.2324 36.5559 18.6899C36.6426 19.1217 37.4719 19.1537 37.7403 18.7975C37.8138 18.6998 37.7398 18.1866 38.0633 18.4745C38.1939 18.9058 37.6651 19.1249 37.5789 19.282C37.4745 19.4719 37.4846 19.9343 37.3096 20.1971C36.9493 20.7381 36.0745 20.7884 35.6408 20.3047C35.3665 19.9989 35.4284 19.5533 35.3178 19.3355C35.2426 19.1875 34.3717 18.5678 34.9679 18.3933C35.13 19.2399 36.2529 19.2967 36.3407 18.4202C35.9069 18.2664 35.6146 18.0712 35.6946 17.5589C35.7588 17.36 36.1255 17.3274 36.206 17.3166V17.3173Z" fill="#20185B"></path>
<path d="M37.202 19.9552C36.7105 19.7908 36.1403 19.6754 35.6947 20.009C35.5822 19.7903 35.5514 19.6317 35.5333 19.3898C35.7912 19.5084 36.3656 19.0399 36.4484 19.0399C36.5212 19.0399 36.5663 19.2125 36.8521 19.3091C37.1602 19.413 37.5552 19.1341 37.202 19.9552Z" fill="#CC3A4D"></path>
<path d="M37.202 19.9552C36.9197 20.6116 36.0207 20.6427 35.6946 20.009C36.1402 19.6752 36.7104 19.7908 37.202 19.9552Z" fill="#EA767E"></path>
<path d="M35.9908 9.56502C37.1099 8.53175 35.7754 6.71191 35.7754 6.71191C35.7754 6.71191 36.5889 8.7957 35.9908 9.56502Z" fill="#FFDEDE"></path>
<path d="M37.1889 8.1535C37.609 7.48718 37.1211 6.87329 37.1211 6.87329C37.2462 7.23841 37.2004 7.61594 37.0135 8.00382C37.0135 8.00382 37.1153 8.09717 37.1889 8.1535Z" fill="#FFDEDE"></path>
<path d="M35.7986 8.29722L35.7216 7.78864C33.3217 8.01189 31.2084 9.01274 29.7133 10.6045L29.7064 10.6275C29.7064 10.6275 32.3822 8.3193 35.7986 8.29722Z" fill="#FFDEDE"></path>
<path d="M39.1131 8.32686C39.0251 8.32157 41.9885 9.71789 43.0524 10.7245C41.8441 9.35093 40.3651 8.40181 39.1131 8.32686Z" fill="#FFDEDE"></path>
<path d="M36.4343 22.1716C28.4896 22.248 27.2609 19.0401 27.2609 19.0401V19.075C27.268 19.2266 27.3305 19.405 27.4579 19.6591C28.4121 21.5619 32.3132 22.5039 36.2485 22.5039C40.0956 22.5039 43.9758 21.6037 45.1695 19.8205C45.2714 19.6682 45.4052 19.4565 45.4831 19.2399C43.4816 21.652 39.412 22.1461 36.4343 22.1716Z" fill="#F6A7A8"></path>
<path d="M29.2862 9.32309C29.3863 9.42632 29.4844 9.52864 29.5693 9.61877C29.9985 9.21824 30.4687 8.8575 30.9739 8.53859L30.9688 8.48157C30.8134 6.77463 30.0655 5.13253 28.8004 3.7146C28.6678 3.56584 28.5165 3.43455 28.3569 3.31499C28.356 3.3143 28.3553 3.31384 28.3544 3.31315C27.9177 2.9862 27.502 2.67512 27.0171 2.52521C26.5299 5.2737 28.1477 7.87987 28.882 8.89175C28.9223 8.94717 29.1239 9.15571 29.286 9.32332L29.2862 9.32309Z" fill="#EA767E"></path>
<path d="M31.6956 8.12477L31.657 8.13856C31.3719 6.01178 30.449 4.55844 28.7499 3.32031C30.074 4.71433 31.0008 6.47416 31.1912 8.40435C31.3556 8.30641 31.5241 8.21375 31.6956 8.12477Z" fill="#FFDEDE"></path>
<path d="M29.4042 9.77883C29.1587 9.51786 28.7717 9.1309 28.6961 9.02675C27.3234 7.13564 26.3212 4.58879 26.8388 2.24358C27.5819 2.38797 28.1553 2.88691 28.7499 3.32031C30.449 4.55821 31.3719 6.01178 31.657 8.13856L31.6956 8.12476C32.0867 7.9222 32.4951 7.74263 32.92 7.58905C32.2564 5.31351 30.0974 2.7163 27.9155 1.81271C26.7843 1.34413 25.616 1.05259 25.4659 2.6471C25.15 6.00672 28.4967 9.89333 28.8878 10.3283C29.0522 10.1382 29.2244 9.95518 29.4042 9.77883Z" fill="#FFC0C0"></path>
<path d="M29.2862 9.3231C29.3872 9.42749 29.487 9.53118 29.5723 9.622C29.7528 9.45301 29.9378 9.28838 30.1326 9.13365C29.9369 7.39336 28.9305 4.52371 27.007 4.57659C27.2993 6.49943 28.3353 8.13808 28.8823 8.89177C28.9225 8.94718 29.1241 9.15549 29.2862 9.3231Z" fill="#F6A7A8"></path>
<path d="M29.4042 9.77882C29.2257 9.58914 28.974 9.33439 28.8195 9.16815C28.9735 9.33393 29.2257 9.58914 29.4042 9.77882Z" fill="#F6A7A8"></path>
<path d="M26.7833 4.5943L26.7836 4.59522L26.7833 4.5943Z" fill="#F6A7A8"></path>
<path d="M28.0861 8.09461C28.0645 8.05805 28.0426 8.02196 28.0212 7.98517C28.0424 8.02196 28.0645 8.05805 28.0861 8.09461Z" fill="#F6A7A8"></path>
<path d="M28.696 9.02673C28.7057 9.0403 28.7211 9.05869 28.7404 9.08077C28.7211 9.05869 28.7059 9.04007 28.696 9.02673Z" fill="#F6A7A8"></path>
<path d="M28.7531 9.09479C28.7703 9.11433 28.7894 9.13525 28.8117 9.15963C28.7891 9.13525 28.7705 9.11456 28.7531 9.09479Z" fill="#F6A7A8"></path>
<path d="M28.3923 8.58552C28.3652 8.5446 28.339 8.50298 28.3123 8.46136C28.339 8.50275 28.3652 8.54437 28.3923 8.58552Z" fill="#F6A7A8"></path>
<path d="M43.5424 9.32309C43.4424 9.42632 43.3442 9.52864 43.2593 9.61877C42.8301 9.21824 42.3599 8.8575 41.8547 8.53859L41.8598 8.48157C42.0152 6.77463 42.7632 5.13253 44.0282 3.7146C44.1609 3.56584 44.3121 3.43455 44.4717 3.31499C44.4726 3.3143 44.4733 3.31384 44.4742 3.31315C44.9109 2.9862 45.3266 2.67512 45.8115 2.52521C46.2987 5.2737 44.6809 7.87987 43.9466 8.89175C43.9063 8.94717 43.7047 9.15571 43.5426 9.32332L43.5424 9.32309Z" fill="#EA767E"></path>
<path d="M41.133 8.12477L41.1716 8.13856C41.4567 6.01178 42.3796 4.55844 44.0788 3.32031C42.7546 4.71433 41.8278 6.47416 41.6374 8.40435C41.4731 8.30641 41.3045 8.21375 41.133 8.12477Z" fill="#FFDEDE"></path>
<path d="M43.4244 9.77883C43.67 9.51786 44.0569 9.1309 44.1326 9.02675C45.5052 7.13564 46.5075 4.58879 45.9899 2.24358C45.2468 2.38797 44.6734 2.88691 44.0788 3.32031C42.3797 4.55821 41.4568 6.01178 41.1717 8.13856L41.133 8.12476C40.7419 7.9222 40.3336 7.74263 39.9087 7.58905C40.5722 5.31351 42.7312 2.7163 44.9132 1.81271C46.0444 1.34413 47.2126 1.05259 47.3628 2.6471C47.6787 6.00672 44.3319 9.89333 43.9408 10.3283C43.7764 10.1382 43.6042 9.95518 43.4244 9.77883Z" fill="#FFC0C0"></path>
<path d="M43.5424 9.3231C43.4415 9.42749 43.3417 9.53118 43.2564 9.622C43.0759 9.45301 42.8908 9.28838 42.696 9.13365C42.8917 7.39336 43.8981 4.52371 45.8216 4.57659C45.5294 6.49943 44.4933 8.13808 43.9464 8.89177C43.9061 8.94718 43.7045 9.15549 43.5424 9.3231Z" fill="#F6A7A8"></path>
<path d="M43.4244 9.77882C43.6029 9.58914 43.8546 9.33439 44.0091 9.16815C43.8551 9.33393 43.6029 9.58914 43.4244 9.77882Z" fill="#F6A7A8"></path>
<path d="M46.0453 4.5943L46.0451 4.59522L46.0453 4.5943Z" fill="#F6A7A8"></path>
<path d="M44.7426 8.09461C44.7642 8.05805 44.786 8.02196 44.8074 7.98517C44.7862 8.02196 44.7642 8.05805 44.7426 8.09461Z" fill="#F6A7A8"></path>
<path d="M44.1326 9.02673C44.123 9.0403 44.1076 9.05869 44.0883 9.08077C44.1076 9.05869 44.1227 9.04007 44.1326 9.02673Z" fill="#F6A7A8"></path>
<path d="M44.0756 9.09479C44.0584 9.11433 44.0393 9.13525 44.017 9.15963C44.0395 9.13525 44.0581 9.11456 44.0756 9.09479Z" fill="#F6A7A8"></path>
<path d="M44.4363 8.58552C44.4635 8.5446 44.4897 8.50298 44.5164 8.46136C44.4897 8.50275 44.4635 8.54437 44.4363 8.58552Z" fill="#F6A7A8"></path>
<path d="M28.8797 37.0816V39.7002H28.2798V39.4926H26.6651V39.7041H26.0806V37.0818H28.8799L28.8797 37.0816ZM28.2759 38.9502V37.6235H26.6612V38.9502H28.2759Z" fill="#20185B"></path>
<path d="M32.2375 37.1623V39.8347H31.6261V39.6425H29.4805V39.0888H31.6261V37.716H29.5113V37.1623H32.2375ZM31.6567 36.4355C31.8144 36.5627 32.0145 36.7894 32.1182 36.9239L31.8567 37.1393C31.7682 37.0048 31.5413 36.7549 31.4107 36.6395L31.6567 36.4355ZM32.3104 36.3781C32.4759 36.5011 32.6681 36.7048 32.7718 36.8547L32.5143 37.0701C32.4221 36.9395 32.2067 36.6933 32.0683 36.5818L32.3104 36.3781Z" fill="#20185B"></path>
<path d="M34.3187 38.2659C34.0074 38.4699 33.5076 38.7428 33.1346 38.9196C33.0576 38.789 32.8999 38.5775 32.7808 38.4699C33.7614 38.0431 34.9149 37.2547 35.4916 36.5666L36.0685 36.9894C36.0452 37.0205 36.0032 37.0395 35.9379 37.0356C35.6378 37.324 35.2881 37.6201 34.9267 37.8854L35.0651 37.9314C35.0536 37.9698 35.0152 38.0045 34.9421 38.016V39.9924H34.3192V38.2659H34.3187Z" fill="#20185B"></path>
<path d="M36.265 37.0122H38.6491L38.6836 36.989L39.191 37.3428C39.1719 37.366 39.145 37.389 39.1142 37.4044C38.7528 38.8426 38.1106 39.5075 36.9341 39.9768C36.8495 39.8306 36.6766 39.6114 36.5573 39.4884C37.5648 39.1116 38.2145 38.4655 38.3914 37.5773H36.265V37.0122ZM39.2182 36.3932C39.4451 36.3932 39.6297 36.5779 39.6297 36.8046C39.6297 37.0313 39.4451 37.2161 39.2182 37.2161C38.9912 37.2161 38.8068 37.0315 38.8068 36.8046C38.8068 36.57 38.999 36.3932 39.2182 36.3932ZM39.4759 36.8046C39.4759 36.6625 39.3605 36.547 39.2182 36.547C39.0758 36.547 38.9606 36.6625 38.9606 36.8046C38.9606 36.9466 39.0761 37.0623 39.2182 37.0623C39.3681 37.0623 39.4759 36.9393 39.4759 36.8046Z" fill="#20185B"></path>
<path d="M43.0797 37.9199H42.4143V38.0429C42.4143 38.8773 42.1221 39.5579 41.2185 40C41.1109 39.877 40.9341 39.7002 40.7878 39.5926C41.6261 39.2121 41.8223 38.6736 41.8223 38.0468V37.9199H40.9495V38.7428H40.365V37.9199H39.7419V37.3623H40.365V36.6241L41.0725 36.6664C41.0686 36.7087 41.0299 36.7586 40.9495 36.7742V37.3626H41.8223V36.5742L42.5373 36.6126C42.5334 36.6588 42.495 36.6935 42.4143 36.7087V37.3626H43.0797V37.9201V37.9199Z" fill="#20185B"></path>
<path d="M46.1646 39.9308C46.1029 39.7694 46.0452 39.6308 45.9838 39.5078C45.1265 39.6117 44.1842 39.6961 43.6228 39.7232C43.6113 39.7657 43.5768 39.8041 43.5343 39.8078L43.342 39.1311C43.4536 39.1311 43.5881 39.1272 43.7343 39.1236C43.961 38.4198 44.2649 37.3509 44.43 36.6319L45.1683 36.8202C45.1568 36.8625 45.1067 36.8931 45.0414 36.8972C44.8685 37.5162 44.5956 38.3814 44.3493 39.1042C44.7144 39.0891 45.3644 39.0389 45.7181 39.0005C45.5757 38.7506 45.418 38.5161 45.2681 38.3315L45.7643 38.0622C46.1372 38.5007 46.5295 39.1813 46.7447 39.6466L46.1643 39.931L46.1646 39.9308Z" fill="#20185B"></path>
<path fill-rule="evenodd" clip-rule="evenodd" d="M70.9816 25.6202C71.9998 25.6202 72.8253 24.7948 72.8253 23.7765C72.8253 22.7583 71.9998 21.9329 70.9816 21.9329C70.3461 21.9329 69.7856 22.2544 69.4541 22.7437C69.3086 22.7172 69.1776 22.7096 69.0745 22.7096H66.2968C65.877 22.7096 65.445 22.8345 65.0755 23.1253C64.9773 23.2025 64.8917 23.2851 64.8168 23.3699C64.7813 23.3269 64.743 23.2846 64.7016 23.2432C64.2856 22.827 63.7704 22.7096 63.3713 22.7096H60.5931C60.2834 22.7096 59.9072 22.7747 59.5529 22.99C59.1724 22.7522 58.7707 22.7096 58.5259 22.7096H57.0229C56.6281 22.7096 56.1533 22.8185 55.7443 23.1664C55.671 23.2288 55.605 23.2943 55.5457 23.3621C55.5389 23.3539 55.532 23.3456 55.525 23.3374C55.0592 22.7889 54.4314 22.7096 54.0974 22.7096H52.5946C52.2 22.7096 51.7249 22.8183 51.3157 23.1666C51.1745 23.2868 51.0605 23.419 50.9689 23.5558C50.1908 22.8681 49.0914 22.4953 47.7087 22.4953C45.9763 22.4953 44.7379 23.1209 43.9075 23.9342C43.0233 22.9639 41.6971 22.7096 40.4083 22.7096H37.4181L37.3804 22.7115C37.0858 22.7264 36.723 22.802 36.381 23.0198C35.9872 22.7556 35.5624 22.7096 35.3079 22.7096H33.8318C33.437 22.7096 32.9622 22.8185 32.5532 23.1664C32.3978 23.2986 32.2753 23.4454 32.1793 23.5969C31.968 23.3908 31.7211 23.2037 31.4351 23.0435C30.7314 22.6494 29.8806 22.468 28.9062 22.468C27.027 22.468 25.6988 23.144 24.8251 24.0992C24.0869 23.0273 22.8144 22.468 21.1224 22.468C19.2299 22.468 17.8961 23.1537 17.0227 24.1196C16.8789 23.9082 16.7077 23.7072 16.5062 23.5228L16.3513 23.2904L16.336 23.377C16.1858 23.2564 16.0209 23.1446 15.8404 23.0435C15.1367 22.6494 14.2859 22.468 13.3115 22.468C11.2902 22.468 9.90627 23.2502 9.03988 24.3205C8.23313 25.3172 7.98411 26.4287 7.89324 26.9707L7.39622 29.7949H5.93421L6.796 24.8766C6.8631 24.5197 6.88488 23.8867 6.41791 23.3371C5.95237 22.7892 5.32496 22.7096 4.99058 22.7096L3.48757 22.7094C3.09281 22.7094 2.61797 22.8182 2.20894 23.1662C1.80693 23.5082 1.62536 23.9478 1.55227 24.3138L1.54901 24.3302L0.0274029 32.9486L0.025278 32.962C-0.0336121 33.3352 -0.0202716 33.9292 0.408021 34.4457C0.844199 34.9718 1.43919 35.0921 1.83696 35.0921H7.13759C7.51696 35.0921 8.00433 34.9945 8.42681 34.6349C8.48885 34.5821 8.54557 34.527 8.59739 34.4701C8.73259 34.5738 8.87912 34.6706 9.03756 34.7591C9.74158 35.1525 10.5924 35.3339 11.567 35.3339C13.4596 35.3339 14.7907 34.6481 15.6623 33.682C15.9453 34.097 16.334 34.4712 16.848 34.7584C17.552 35.1518 18.4029 35.3332 19.3775 35.3332C21.2589 35.3332 22.5854 34.6555 23.4573 33.6984C23.7393 34.1071 24.1247 34.4756 24.6323 34.7591C25.3363 35.1525 26.1871 35.3339 27.1617 35.3339C28.6429 35.3339 29.7801 34.9139 30.6224 34.2682C30.6607 34.3281 30.7038 34.3876 30.7522 34.446C31.1884 34.9721 31.7834 35.0923 32.1812 35.0923H33.6573C33.9994 35.0923 34.3895 35.0109 34.7449 34.7807C35.1103 35.0268 35.5115 35.0923 35.8052 35.0923H37.3082C37.6878 35.0923 38.175 34.9946 38.5973 34.6351C39.0117 34.2823 39.189 33.8261 39.2513 33.4459L39.4884 32.1378C40.2043 32.1222 40.8878 32.0234 41.5155 31.8071C41.5792 32.3669 41.7556 32.9981 42.1573 33.5857C42.9144 34.6931 44.2194 35.2935 45.9777 35.2935C47.9083 35.2935 49.2743 34.5842 50.1742 33.7118C50.4553 34.1152 50.8378 34.4787 51.3398 34.7591C52.0438 35.1525 52.8947 35.3339 53.8693 35.3339C55.3701 35.3339 56.5178 34.9027 57.3633 34.2424C57.4017 34.3052 57.4453 34.3676 57.4948 34.4292C57.9414 34.984 58.5609 35.0923 58.9425 35.0923H60.4455C60.8108 35.0923 61.2303 34.9995 61.604 34.7324C61.995 35.0223 62.4272 35.0923 62.7404 35.0923H63.626C64.0041 35.0923 64.4133 34.9943 64.7824 34.7409L64.7936 34.7331C65.1761 35.0183 65.6089 35.0923 65.9209 35.0923H67.4239C67.8371 35.0923 68.3195 34.9735 68.7267 34.6183C69.1238 34.2719 69.3033 33.8279 69.367 33.4459L70.7511 25.606C70.8266 25.6154 70.9035 25.6202 70.9816 25.6202Z" fill="#20185B"></path>
<path d="M4.99056 24.2041C5.25888 24.2041 5.37959 24.3384 5.32602 24.6067L4.22561 30.8868C4.17204 31.1418 4.29275 31.2894 4.54773 31.2894H7.54017C7.80872 31.2894 7.92943 31.4236 7.87563 31.692L7.60731 33.195C7.56707 33.4633 7.40613 33.5976 7.13758 33.5976H1.83695C1.58197 33.5976 1.46126 33.4499 1.50149 33.195L3.01783 24.6064C3.0714 24.3381 3.23281 24.2039 3.48756 24.2039L4.99056 24.2041Z" fill="url(#paint0_linear_5416_68)"></path>
<path d="M15.5123 30.5784C15.3513 31.4641 14.7475 33.8394 11.567 33.8394C8.38651 33.8394 8.61483 31.4641 8.77577 30.5784L9.36621 27.2234C9.51382 26.3378 10.1309 23.9624 13.3114 23.9624C16.492 23.9624 16.2501 26.3378 16.1027 27.2234L15.5123 30.5784ZM13.6605 27.9348C13.8481 26.9015 13.8886 26.2709 12.8955 26.2709C11.9025 26.2709 11.728 26.9015 11.5401 27.9348L11.2047 29.8671C11.0168 30.9003 10.9766 31.531 11.9694 31.531C12.9622 31.531 13.1369 30.9003 13.325 29.8671L13.6605 27.9348Z" fill="url(#paint1_linear_5416_68)"></path>
<path d="M17.1771 27.2234C17.3247 26.3378 17.9419 23.9624 21.1224 23.9624C23.9405 23.9624 24.0746 25.8145 23.9672 26.8611C23.927 27.1025 23.7793 27.2501 23.5379 27.3039L21.9542 27.6393C21.6859 27.6929 21.5516 27.5722 21.5785 27.2903C21.6321 26.6461 21.4712 26.2704 20.7062 26.2704C19.7132 26.2704 19.5387 26.9011 19.3508 27.9343L19.0154 29.8666C18.8275 30.8999 18.7873 31.5306 19.7801 31.5306C20.7729 31.5306 20.9476 30.8999 21.0686 30.2423H20.2901C20.0353 30.2423 19.9144 30.0945 19.9546 29.8397L20.1424 28.766C20.196 28.4976 20.3705 28.3634 20.6255 28.3634H23.3096C23.5779 28.3634 23.6853 28.4976 23.6315 28.766L23.3227 30.5778C23.1618 31.4634 22.558 33.8387 19.3775 33.8387C16.197 33.8387 16.4253 31.4634 16.5862 30.5778L17.1771 27.2234Z" fill="url(#paint2_linear_5416_68)"></path>
<path d="M31.107 30.5784C30.946 31.4641 30.3422 33.8394 27.1617 33.8394C23.9812 33.8394 24.2095 31.4641 24.3705 30.5784L24.9609 27.2234C25.1085 26.3378 25.7256 23.9624 28.9062 23.9624C32.0867 23.9624 31.8448 26.3378 31.6974 27.2234L31.107 30.5784ZM29.2552 27.9348C29.4428 26.9015 29.4833 26.2709 28.4902 26.2709C27.4972 26.2709 27.3227 26.9015 27.1348 27.9348L26.7994 29.8671C26.6115 30.9003 26.5713 31.531 27.5641 31.531C28.5569 31.531 28.7316 30.9003 28.9197 29.8671L29.2552 27.9348Z" fill="url(#paint3_linear_5416_68)"></path>
<path d="M35.3079 24.2041C35.5764 24.2041 35.6971 24.3384 35.6436 24.6067L34.127 33.1952C34.0868 33.4502 33.9258 33.5978 33.6573 33.5978H32.1812C31.9262 33.5978 31.8055 33.4502 31.8457 33.1952L33.362 24.6067C33.4156 24.3384 33.577 24.2041 33.8318 24.2041H35.3079Z" fill="url(#paint4_linear_5416_68)"></path>
<path d="M40.408 24.2041C42.7967 24.2041 43.5883 25.224 43.1993 27.4248C42.8102 29.6254 41.6696 30.6456 39.2807 30.6456H38.6367C38.3817 30.6456 38.2072 30.7796 38.167 31.0482L37.7779 33.1952C37.7375 33.4635 37.5765 33.5978 37.3082 33.5978H35.8052C35.5502 33.5978 35.4295 33.4502 35.4697 33.1952L36.9861 24.6202C37.0266 24.3517 37.1875 24.2176 37.4558 24.2041C37.4558 24.2041 38.0194 24.2041 40.408 24.2041ZM39.7638 28.3374C40.408 28.3374 40.7435 28.2567 40.8909 27.4248C41.0387 26.5927 40.7299 26.5123 40.0857 26.5123H39.3612C39.1062 26.5123 38.9317 26.6463 38.8914 26.9149L38.7036 27.9348C38.6634 28.1896 38.7843 28.3374 39.0391 28.3374H39.7638Z" fill="url(#paint5_linear_5416_68)"></path>
<path d="M48.7018 27.5322C48.4199 27.5858 48.3127 27.4651 48.3127 27.1967C48.3127 26.6463 47.9371 26.2978 47.3064 26.2978C46.7831 26.2978 46.4074 26.6063 46.4074 26.9151C46.4074 27.9617 50.6476 27.935 50.111 31.0213C50.0438 31.4239 49.1579 33.799 45.9777 33.799C43.1595 33.799 42.8912 31.9472 42.9986 30.9006C43.0388 30.6589 43.1864 30.5115 43.428 30.4577L45.0115 30.1223C45.2798 30.0687 45.4141 30.1894 45.3872 30.4713C45.3336 31.1153 45.7631 31.4912 46.3938 31.4912C47.0512 31.4912 47.6016 31.1022 47.588 30.7396C47.5345 29.599 43.4414 29.8537 43.9916 26.7675C44.0452 26.3649 44.7027 23.9898 47.7087 23.9898C50.4731 23.9898 50.8085 25.7878 50.7145 26.7541C50.6878 26.9956 50.54 27.1432 50.2852 27.197L48.7018 27.5322Z" fill="url(#paint6_linear_5416_68)"></path>
<path d="M54.0974 24.2041C54.3659 24.2041 54.4864 24.3384 54.4328 24.6067L53.5071 29.8671C53.3193 30.9003 53.2791 31.531 54.2719 31.531C55.2647 31.531 55.4394 30.9003 55.6275 29.8671L56.5532 24.6067C56.6067 24.3384 56.7681 24.2041 57.0229 24.2041H58.5259C58.7942 24.2041 58.9149 24.3384 58.8613 24.6067L57.8145 30.5784C57.6536 31.4641 57.0498 33.8394 53.8693 33.8394C50.6888 33.8394 50.9171 31.4641 51.078 30.5784L52.1249 24.6067C52.1784 24.3384 52.3396 24.2041 52.5946 24.2041H54.0974Z" fill="url(#paint7_linear_5416_68)"></path>
<path d="M63.3713 24.2041C63.6127 24.2041 63.7334 24.3384 63.747 24.5664L64.0019 28.4714C64.0153 28.6055 64.1224 28.6055 64.1629 28.4714L65.8135 24.5664C65.9073 24.3384 66.0552 24.2041 66.2968 24.2041H69.0745C69.3428 24.2041 69.4635 24.3384 69.41 24.6067L67.8936 33.1952C67.8531 33.4502 67.6922 33.5978 67.4239 33.5978H65.9209C65.6661 33.5978 65.5452 33.4502 65.5854 33.1952L66.5249 27.9079C66.5382 27.8141 66.4173 27.8005 66.3771 27.8946L64.136 33.2488C64.0422 33.4768 63.8677 33.5978 63.626 33.5978H62.7404C62.4987 33.5978 62.378 33.4771 62.3644 33.2488L62.0023 27.8946C61.9888 27.8005 61.868 27.8139 61.8545 27.9079L60.9152 33.1952C60.8748 33.4502 60.7138 33.5978 60.4455 33.5978H58.9425C58.6742 33.5978 58.5668 33.4502 58.607 33.1952L60.1234 24.6067C60.177 24.3384 60.3248 24.2041 60.5931 24.2041H63.3713Z" fill="url(#paint8_linear_5416_68)"></path>
<path d="M71.6756 23.7765C71.6756 24.1599 71.3649 24.4706 70.9816 24.4706C70.5982 24.4706 70.2875 24.1599 70.2875 23.7765C70.2875 23.3932 70.5982 23.0825 70.9816 23.0825C71.3649 23.0825 71.6756 23.3932 71.6756 23.7765Z" fill="url(#paint9_linear_5416_68)"></path>
<defs>
<linearGradient id="paint0_linear_5416_68" x1="36.5848" y1="23.0825" x2="37.7373" y2="34.3239" gradientUnits="userSpaceOnUse">
<stop stop-color="#FFD4D4"></stop>
<stop offset="0.501102" stop-color="#FFD4D4"></stop>
<stop offset="0.501102" stop-color="#F6A7A8"></stop>
</linearGradient>
<linearGradient id="paint1_linear_5416_68" x1="36.5848" y1="23.0825" x2="37.7373" y2="34.3239" gradientUnits="userSpaceOnUse">
<stop stop-color="#FFD4D4"></stop>
<stop offset="0.501102" stop-color="#FFD4D4"></stop>
<stop offset="0.501102" stop-color="#F6A7A8"></stop>
</linearGradient>
<linearGradient id="paint2_linear_5416_68" x1="36.5848" y1="23.0825" x2="37.7373" y2="34.3239" gradientUnits="userSpaceOnUse">
<stop stop-color="#FFD4D4"></stop>
<stop offset="0.501102" stop-color="#FFD4D4"></stop>
<stop offset="0.501102" stop-color="#F6A7A8"></stop>
</linearGradient>
<linearGradient id="paint3_linear_5416_68" x1="36.5848" y1="23.0825" x2="37.7373" y2="34.3239" gradientUnits="userSpaceOnUse">
<stop stop-color="#FFD4D4"></stop>
<stop offset="0.501102" stop-color="#FFD4D4"></stop>
<stop offset="0.501102" stop-color="#F6A7A8"></stop>
</linearGradient>
<linearGradient id="paint4_linear_5416_68" x1="36.5848" y1="23.0825" x2="37.7373" y2="34.3239" gradientUnits="userSpaceOnUse">
<stop stop-color="#FFD4D4"></stop>
<stop offset="0.501102" stop-color="#FFD4D4"></stop>
<stop offset="0.501102" stop-color="#F6A7A8"></stop>
</linearGradient>
<linearGradient id="paint5_linear_5416_68" x1="36.5848" y1="23.0825" x2="37.7373" y2="34.3239" gradientUnits="userSpaceOnUse">
<stop stop-color="#FFD4D4"></stop>
<stop offset="0.501102" stop-color="#FFD4D4"></stop>
<stop offset="0.501102" stop-color="#F6A7A8"></stop>
</linearGradient>
<linearGradient id="paint6_linear_5416_68" x1="36.5848" y1="23.0825" x2="37.7373" y2="34.3239" gradientUnits="userSpaceOnUse">
<stop stop-color="#FFD4D4"></stop>
<stop offset="0.501102" stop-color="#FFD4D4"></stop>
<stop offset="0.501102" stop-color="#F6A7A8"></stop>
</linearGradient>
<linearGradient id="paint7_linear_5416_68" x1="36.5848" y1="23.0825" x2="37.7373" y2="34.3239" gradientUnits="userSpaceOnUse">
<stop stop-color="#FFD4D4"></stop>
<stop offset="0.501102" stop-color="#FFD4D4"></stop>
<stop offset="0.501102" stop-color="#F6A7A8"></stop>
</linearGradient>
<linearGradient id="paint8_linear_5416_68" x1="36.5848" y1="23.0825" x2="37.7373" y2="34.3239" gradientUnits="userSpaceOnUse">
<stop stop-color="#FFD4D4"></stop>
<stop offset="0.501102" stop-color="#FFD4D4"></stop>
<stop offset="0.501102" stop-color="#F6A7A8"></stop>
</linearGradient>
<linearGradient id="paint9_linear_5416_68" x1="36.5848" y1="23.0825" x2="37.7373" y2="34.3239" gradientUnits="userSpaceOnUse">
<stop stop-color="#FFD4D4"></stop>
<stop offset="0.501102" stop-color="#FFD4D4"></stop>
<stop offset="0.501102" stop-color="#F6A7A8"></stop>
</linearGradient>
</defs>
</svg>